<svg id="logo" enable-background="new 0 0 24 24" height="512" viewBox="0 0 24 24" width="512" xmlns="http://www.w3.org/2000/svg">
    <path class="path" d="m20.102 10.431-6.37-1.351c-2.17-.449-4.068-1.772-5.233-2.751-.51 1.15-1.407 2.325-2.417 2.692l-2.276 1.303c-.628.36-1.429-.073-1.429-.772v-1.36c0-5.253 4.897-7.645 9.447-7.645 4.541 0 9.428 2.395 9.428 7.654v1.351c-.002.58-.565 1.004-1.15.879z" fill="#607d8b"/>
    <path class="path" d="m12.009 23.37c-5.194 0-7.843-4.3-8.59-8.325-.089-.479.227-.939.706-1.029s15.291-.099 15.765-.007c.479.093.792.555.699 1.034-1.33 6.882-5.4 8.327-8.58 8.327z" fill="#ffcc80"/>
    <path class="path" d="m19.25 8h-14.5c-1.105 0-2 .895-2 2v4c0 1.105.895 2 2 2h14.5c1.105 0 2-.895 2-2v-4c0-1.105-.895-2-2-2z" fill="#00bcd4"/>
    <path class="path" d="m3 13.75h-1.25c-.552 0-1-.448-1-1v-1.5c0-.552.448-1 1-1h1.25c.552 0 1 .448 1 1v1.5c0 .552-.448 1-1 1z" fill="#0097a7"/>
    <path class="path" d="m22 13.75h-1c-.552 0-1-.448-1-1v-1.5c0-.552.448-1 1-1h1c.552 0 1 .448 1 1v1.5c0 .552-.448 1-1 1z" fill="#0097a7"/>
    <path class="path" d="m11.417 7.75h-4.917l1.44-2.75z" fill="#ffcc80"/>
    <path class="path" d="m21.25 10.75c-.414 0-.75-.336-.75-.75v-1.75c0-5.328-5.337-6.75-8.49-6.75-3.161 0-8.51 1.419-8.51 6.74v1.76c0 .414-.336.75-.75.75s-.75-.336-.75-.75v-1.76c0-5.661 5.188-8.24 10.01-8.24 4.811 0 9.99 2.582 9.99 8.25v1.75c0 .414-.336.75-.75.75z"/>
    <path class="path" d="m11.5 8c-.069 0-.141-.01-.211-.03-1.485-.435-2.43-.991-3.031-1.514-.299.526-.744 1.001-1.328 1.409-.34.237-.808.154-1.044-.185-.238-.34-.156-.807.184-1.045.765-.534 1.136-1.151 1.136-1.885 0-.394.305-.721.698-.748.395-.034.74.254.795.644.003 0 .331 1.1 3.012 1.885.397.116.625.533.509.931-.096.326-.395.538-.72.538z"/>
    <path class="path" d="m19.25 17h-14.5c-1.043 0-2.01-.605-2.465-1.542-.186-.36-.285-.772-.285-1.208 0-.414.336-.75.75-.75s.75.336.75.75c0 .199.04.369.126.535.214.441.652.715 1.124.715h14.5c.479 0 .911-.272 1.127-.711.081-.162.123-.347.123-.539 0-.414.336-.75.75-.75s.75.336.75.75c0 .422-.097.839-.279 1.205-.469.952-1.416 1.545-2.471 1.545z"/>
    <path class="path" d="m21.25 10.5c-.414 0-.75-.336-.75-.75 0-.689-.561-1.25-1.25-1.25h-14.5c-.689 0-1.25.561-1.25 1.25 0 .414-.336.75-.75.75s-.75-.336-.75-.75c0-1.517 1.233-2.75 2.75-2.75h14.5c1.517 0 2.75 1.233 2.75 2.75 0 .414-.336.75-.75.75z"/>
    <path class="path" d="m12 20.999c-.938 0-1.874-.196-2.604-.588-.365-.196-.502-.65-.307-1.015.196-.365.65-.505 1.016-.306 1.027.551 2.764.551 3.791 0 .365-.197.819-.059 1.016.306.195.365.059.819-.307 1.015-.731.392-1.667.588-2.605.588z"/>
    <path class="path" d="m22.25 14.5h-1.5c-.965 0-1.75-.785-1.75-1.75v-1.5c0-.965.785-1.75 1.75-1.75h1.5c.965 0 1.75.785 1.75 1.75v1.5c0 .965-.785 1.75-1.75 1.75zm-1.5-3.5c-.138 0-.25.112-.25.25v1.5c0 .138.112.25.25.25h1.5c.138 0 .25-.112.25-.25v-1.5c0-.138-.112-.25-.25-.25z"/>
    <path class="path" d="m3.25 14.5h-1.5c-.965 0-1.75-.785-1.75-1.75v-1.5c0-.965.785-1.75 1.75-1.75h1.5c.965 0 1.75.785 1.75 1.75v1.5c0 .965-.785 1.75-1.75 1.75zm-1.5-3.5c-.138 0-.25.112-.25.25v1.5c0 .138.112.25.25.25h1.5c.138 0 .25-.112.25-.25v-1.5c0-.138-.112-.25-.25-.25z"/>
    <circle cx="15.5" cy="10.5" r="1.5"/>
    <path class="path" d="m12.01 24c-3.494 0-6.313-1.741-8.379-5.173-.034-.062-.49-.894-.686-1.352-.304-.702-.532-1.444-.677-2.205-.078-.407.188-.799.596-.877.396-.075.8.189.877.596.125.652.32 1.289.582 1.893.14.328.486.975.607 1.197 1.786 2.966 4.106 4.42 7.079 4.42 2.917 0 5.207-1.411 7.002-4.314.124-.218.513-.919.666-1.273.263-.628.457-1.265.592-1.939.081-.406.477-.672.882-.589.406.081.67.476.589.882-.154.773-.377 1.504-.683 2.233-.22.511-.735 1.414-.757 1.452-2.074 3.358-4.86 5.049-8.29 5.049z"/>
</svg>